<svg width="24" height="24" viewBox="0 0 24 24" fill="none" xmlns="http://www.w3.org/2000/svg">
<path fill-rule="evenodd" clip-rule="evenodd" d="M13.9998 18.3413C13.9998 19.2403 13.0838 20.0003 11.9998 20.0003C10.9158 20.0003 9.99985 19.2403 9.99985 18.3413V18.0003H13.9998V18.3413ZM20.5208 15.2073L18.7198 13.4043V8.9363C18.7198 5.4553 16.2178 2.4993 12.8988 2.0593C10.9778 1.8043 9.03785 2.3903 7.58285 3.6663C6.11885 4.9483 5.27985 6.7933 5.27985 8.7273L5.27885 13.4043L3.47885 15.2083C3.00985 15.6773 2.87085 16.3773 3.12485 16.9903C3.37985 17.6033 3.97285 18.0003 4.63685 18.0003H7.99985V18.3413C7.99985 20.3593 9.79385 22.0003 11.9998 22.0003C14.2058 22.0003 15.9998 20.3593 15.9998 18.3413V18.0003H19.3618C20.0258 18.0003 20.6188 17.6043 20.8728 16.9903C21.1278 16.3773 20.9888 15.6773 20.5208 15.2073Z" fill="#397DF6"/>
<mask id="mask0_74136_7141" style="mask-type:luminance" maskUnits="userSpaceOnUse" x="2" y="2" width="19" height="21">
<path fill-rule="evenodd" clip-rule="evenodd" d="M13.9998 18.3413C13.9998 19.2403 13.0838 20.0003 11.9998 20.0003C10.9158 20.0003 9.99985 19.2403 9.99985 18.3413V18.0003H13.9998V18.3413ZM20.5208 15.2073L18.7198 13.4043V8.9363C18.7198 5.4553 16.2178 2.4993 12.8988 2.0593C10.9778 1.8043 9.03785 2.3903 7.58285 3.6663C6.11885 4.9483 5.27985 6.7933 5.27985 8.7273L5.27885 13.4043L3.47885 15.2083C3.00985 15.6773 2.87085 16.3773 3.12485 16.9903C3.37985 17.6033 3.97285 18.0003 4.63685 18.0003H7.99985V18.3413C7.99985 20.3593 9.79385 22.0003 11.9998 22.0003C14.2058 22.0003 15.9998 20.3593 15.9998 18.3413V18.0003H19.3618C20.0258 18.0003 20.6188 17.6043 20.8728 16.9903C21.1278 16.3773 20.9888 15.6773 20.5208 15.2073Z" fill="white"/>
</mask>
<g mask="url(#mask0_74136_7141)">
<rect width="24" height="24" fill="#397DF6"/>
</g>
</svg>
