<svg xmlns="http://www.w3.org/2000/svg" width="473" height="353" fill="none">
    <path fill="#4C4C4C" d="M473 309.72H0v.237h473v-.237ZM425.605 324.941h-31.331v.237h31.331v-.237Z"/>
    <path fill="#EBEBEB" d="M313.334 327.515h-8.221v.236h8.221v-.236Z"/>
    <path fill="#4C4C4C"
          d="M393.328 316.163h-18.154v.236h18.154v-.236ZM90.485 317.752H49.627v.236h40.858v-.236ZM104.902 317.752h-5.988v.236h5.988v-.236ZM212.992 321.744h-88.621v.237h88.621v-.237ZM224.202 267.529H41.539a5.403 5.403 0 0 1-5.392-5.402V5.354A5.401 5.401 0 0 1 41.539 0h182.663a5.401 5.401 0 0 1 5.402 5.402v256.725a5.403 5.403 0 0 1-5.402 5.402ZM41.539.189a5.165 5.165 0 0 0-5.156 5.165v256.773a5.165 5.165 0 0 0 5.156 5.165h182.663a5.171 5.171 0 0 0 5.165-5.165V5.354A5.173 5.173 0 0 0 224.202.19H41.539ZM428.831 267.529H246.158a5.414 5.414 0 0 1-5.401-5.402V5.354A5.412 5.412 0 0 1 246.158 0h182.673a5.403 5.403 0 0 1 5.383 5.354v256.773a5.402 5.402 0 0 1-5.383 5.402ZM246.158.189a5.173 5.173 0 0 0-5.165 5.165v256.773a5.171 5.171 0 0 0 5.165 5.165h182.673a5.173 5.173 0 0 0 5.165-5.165V5.354A5.172 5.172 0 0 0 428.831.19H246.158Z"/>
    <path fill="#4C4C4C" d="M63.184 309.72h128.372V38.417H63.183V309.72Z"/>
    <path fill="#4C4C4C" d="M60.336 309.72h128.372V38.417H60.336V309.72Z"/>
    <path fill="#333" d="M183.59 303.969v-259.8H65.463v259.8H183.59Z"/>
    <path fill="#4C4C4C"
          d="m156.383 303.969-29.931-259.8H92.661l29.931 259.8h33.791ZM67.62 303.969v-259.8h-2.157v259.8h2.157Z"/>
    <path fill="#4C4C4C" d="M62.455 74.394h124.134v-7.72H62.455v7.72Z"/>
    <path fill="#333" d="M259.421 309.72V152.306H207.59V309.72h51.831Z"/>
    <path fill="#4C4C4C"
          d="M256.574 203.04v-46.136h-46.136v46.136h46.136ZM256.574 253.32v-46.136h-46.136v46.136h46.136ZM256.574 303.6v-46.137h-46.136V303.6h46.136Z"/>
    <path fill="#E6E6E6"
          d="M243.718 156.298h-20.462a4.737 4.737 0 0 0 1.385 3.392 4.73 4.73 0 0 0 3.392 1.385h10.86a4.786 4.786 0 0 0 4.825-4.777Z"/>
    <path fill="#333"
          d="M243.718 206.578h-20.462a4.788 4.788 0 0 0 4.777 4.787h10.86a4.816 4.816 0 0 0 3.407-1.391 4.795 4.795 0 0 0 1.418-3.396ZM243.718 256.858h-20.462a4.784 4.784 0 0 0 4.777 4.787h10.86a4.803 4.803 0 0 0 4.825-4.787Z"/>
    <path fill="#4C4C4C"
          d="M285.304 309.72V152.306h-25.892V309.72h25.892ZM397.784 305.851h14.369V187.336h-14.369v118.515Z"/>
    <path fill="#333" d="M272.183 309.72h137.984v-3.869H272.183v3.869Z"/>
    <path fill="#4C4C4C" d="M397.784 187.336H270.187v118.515h127.597V187.336Z"/>
    <path fill="#333"
          d="M295.152 256.593h77.629a13.822 13.822 0 0 0 0-27.642h-77.629a13.822 13.822 0 0 0 0 27.642Zm77.648-26.715a12.892 12.892 0 0 1 11.912 7.96 12.892 12.892 0 0 1-11.912 17.828h-77.648a12.893 12.893 0 0 1 0-25.788H372.8ZM295.152 290.98h77.629a13.822 13.822 0 0 0 0-27.642h-77.629a13.822 13.822 0 0 0 0 27.642Zm77.629-26.715a12.897 12.897 0 0 1 13.243 12.889 12.893 12.893 0 0 1-13.243 12.89h-77.629a12.897 12.897 0 0 1-12.228-17.904 12.896 12.896 0 0 1 12.228-7.875h77.629Z"/>
    <path fill="#333"
          d="M322.274 239.792h23.423a2.894 2.894 0 0 0 2.885-2.885 2.892 2.892 0 0 0-2.885-2.886h-23.423a2.898 2.898 0 0 0-2.885 2.886 2.891 2.891 0 0 0 2.885 2.885ZM295.152 222.206h77.629a13.822 13.822 0 0 0 0-27.642h-77.629a13.822 13.822 0 0 0 0 27.642Zm77.629-26.715a12.893 12.893 0 1 1 0 25.788h-77.629a12.893 12.893 0 1 1 0-25.788h77.629Z"/>
    <path fill="#333"
          d="M322.274 205.405h23.423a2.89 2.89 0 0 0 2.037-.848 2.89 2.89 0 0 0 .848-2.037 2.887 2.887 0 0 0-2.885-2.838h-23.423a2.886 2.886 0 0 0-2.885 2.838 2.89 2.89 0 0 0 .848 2.037 2.89 2.89 0 0 0 2.037.848ZM322.274 274.17h23.423a2.887 2.887 0 0 0 2.885-2.838 2.894 2.894 0 0 0-2.885-2.838h-23.423a2.89 2.89 0 0 0-2.885 2.838 2.885 2.885 0 0 0 2.885 2.838Z"/>
    <path fill="#4C4C4C" d="M267.557 187.336h130.217v-6.026H267.557v6.026Z"/>
    <path fill="#333"
          d="M414.973 181.32h-17.189v6.026h17.189v-6.026ZM304.612 86.455c2.904 1.457 10.775-.114 8.155 5.212a44.325 44.325 0 0 1-5.383 7.814c-2.933 3.624-2.375 7.568 1.088 8.968a4.18 4.18 0 0 1 1.892 1.325c1.598 2.289-2.167 5.354-4.021 7.644-1.854 2.289-2.592 4.54-1.23 6.243 1.514 1.892 4.655 1.183 7.152 1.75 5.998 1.372-.17 9.649.464 13.897.435 2.914 2.838 3.727 6.007 4.134 2.62.341 6.111.577 6.253 3.254.132 2.327-2.895 4.957-3.69 7.398a7.65 7.65 0 0 0 .587 6.433 7.032 7.032 0 0 0 4.73 3.084c2.97.624 7.464 0 7.682 3.33.094 1.494-.946 2.838-.228 4.2a4.82 4.82 0 0 0 3.491 2.053c2.845.434 5.743.383 8.571-.152 3.491-.643 8.646-3.717 6.754-6.678a4.044 4.044 0 0 0-2.705-1.552c-.833-.17-3.273.095-3.585-.473-.313-.567.529-2.753.558-3.538a16.617 16.617 0 0 0-1.013-6.404 19.512 19.512 0 0 0-4.503-7.133c-.832-.842-2.147-1.457-2.317-2.677-.171-1.221.596-2.564 1.447-3.784 1.334-1.892 3.406-3.671 4.153-5.676 1.173-3.16-1.674-4.163-4.314-4.882-2.384-.652-5.524-1.485-4.73-4.38.587-2.09 3.226-3.784 4.011-5.846 1.069-2.734-1.523-2.838-3.367-3.784-2.413-1.268-3.018-3.538-2.148-6.404 1.448-4.73 10.122-11.419 5.676-14.493-1.126-.785-2.176-1.04-2.838-2.223-.662-1.183-.832-2.838-1.778-3.954-1.495-1.807-4.588-2.11-6.197-3.785-3.32-3.443 3.841-9.545-2.696-11.002a7.758 7.758 0 0 1-3.784-1.58c-.596-.557-1.088-3.254-1.759-3.443-2.999-.832-8.401 4.986-10.104 6.774-2.071 2.156-9.724 8.59-6.281 10.33Z"/>
    <path fill="#4C4C4C"
          d="M356.065 166.695c-1.778-3.302-9.564-6.622-4.399-10.406a43.445 43.445 0 0 1 8.93-4.664c4.522-1.892 6.13-6.244 3.841-9.848a5.454 5.454 0 0 1-.946-2.554c-.189-3.33 4.777-4.125 7.634-5.326 2.857-1.202 4.73-3.037 4.418-5.629-.321-2.838-3.462-4.105-5.364-6.234-4.559-5.127 5.317-9.772 7.029-14.521 1.173-3.254-.473-5.553-3.084-7.965-2.128-1.978-5.089-4.38-3.784-7.218 1.135-2.46 5.213-3.273 7.218-5.28a9.786 9.786 0 0 0 2.165-3.181 9.79 9.79 0 0 0 .768-3.771 9.073 9.073 0 0 0-2.507-6.083c-2.289-2.488-6.622-4.616-5.005-8.183.719-1.59 2.356-2.299 2.451-4.162a6.058 6.058 0 0 0-1.978-4.267 25.738 25.738 0 0 0-7.643-5.174c-3.425-1.514-9.621-1.561-9.536 2.648a5.159 5.159 0 0 0 1.552 3.264c.652.7 2.942 1.94 2.913 2.715-.028.776-1.892 2.488-2.393 3.273a21.985 21.985 0 0 0-2.526 7.19 26.887 26.887 0 0 0 .161 10.103c.274 1.372 1.116 2.838.605 4.182-.511 1.343-1.892 2.251-3.282 2.942-2.186 1.097-4.976 1.655-6.707 3.244-2.734 2.507-.757 5.307 1.192 7.682 1.759 2.147 4.077 4.948 1.816 7.417-1.637 1.778-4.882 1.892-6.622 3.49-2.403 2.148-.18 3.86.946 6.017 1.438 2.838.766 5.487-1.542 7.88-3.784 3.954-15.042 5.411-12.762 11.352.577 1.504 1.353 2.422 1.325 4.049-.029 1.627-.776 3.406-.549 5.156.35 2.781 2.914 5.013 3.443 7.728 1.079 5.591-8.514 7.398-3.519 12.942a9.344 9.344 0 0 1 2.517 3.992c.236.946-.785 4.001-.294 4.616 2.205 2.715 10.085.123 12.544-.662 2.905-.993 13.103-2.828 10.974-6.754Z"/>
    <path fill="#333" d="M376.007 159.25s-.946 22.07-37.065 22.07c-36.118 0-37.064-22.07-37.064-22.07h74.129Z"/>
    <path fill="#171717"
          d="M236.5 352.442c101.3 0 183.42-4.795 183.42-10.709s-82.12-10.709-183.42-10.709c-101.3 0-183.42 4.795-183.42 10.709s82.12 10.709 183.42 10.709Z"/>
    <g fill="#397DF6" opacity=".2">
        <path d="M341.251 333.815 281 222.452l-60.251 111.363h120.502Z"/>
        <path d="M341.251 145.419 281 256.773l-60.251-111.354h120.502Z"/>
    </g>
    <path fill="#397DF6"
          d="m292.04 211.166-8.817 16.29a2.519 2.519 0 0 1-3.518.97 2.522 2.522 0 0 1-.928-.97l-8.817-16.29a9.661 9.661 0 0 1 .208-9.543 9.662 9.662 0 0 1 8.306-4.704h5.099a9.662 9.662 0 0 1 9.624 9.46 9.662 9.662 0 0 1-1.157 4.787ZM281.955 305.7l27.387 11.257c.534.225.975.628 1.247 1.14a2.524 2.524 0 0 1-2.193 3.713h-54.745a2.526 2.526 0 0 1-.946-4.853l27.311-11.257a2.5 2.5 0 0 1 1.939 0ZM281 284.282a3.51 3.51 0 1 0 0-7.02 3.51 3.51 0 0 0 0 7.02ZM281 245.922a1.807 1.807 0 1 0 0-3.614 1.807 1.807 0 0 0 0 3.614ZM281 263.641a2.053 2.053 0 1 0-.001-4.105 2.053 2.053 0 0 0 .001 4.105ZM340.948 328.319H221.052a5.505 5.505 0 0 0-5.487 5.496 5.508 5.508 0 0 0 5.487 5.487h119.896a5.507 5.507 0 0 0 5.487-5.487 5.503 5.503 0 0 0-5.487-5.496ZM340.948 139.932H221.052a5.507 5.507 0 0 0-5.487 5.487 5.506 5.506 0 0 0 5.487 5.487h119.896a5.507 5.507 0 0 0 5.487-5.487 5.507 5.507 0 0 0-5.487-5.487Z"/>
    <path fill="#FF8B7B" d="m184.12 331.743-6.669-2.166 4.143-15.732 6.669 2.166-4.143 15.732Z"/>
    <path fill="#263238"
          d="m177.347 328.688 7.492 2.431a.512.512 0 0 1 .35.615l-1.561 6.054a1.239 1.239 0 0 1-1.551.804c-2.592-.889-3.784-1.447-7.086-2.516-2.034-.662-8.712-2.384-11.513-3.292-2.8-.908-1.825-3.652-.558-3.519 5.676.596 10.785.331 13.15-.54a1.975 1.975 0 0 1 1.277-.037Z"/>
    <path fill="#000" d="m188.263 316.021-6.669-2.176-2.138 8.117 6.679 2.166 2.128-8.107Z" opacity=".2"/>
    <path fill="#397DF6"
          d="M206.493 156.771s-11.967 55.388-14.777 75.302c-3.075 21.805-14.625 87.287-14.625 87.287l12.383 3.425s17.16-63.505 22.174-84.705c5.44-23.016 19.866-81.356 19.866-81.356l-25.021.047Z"/>
    <path fill="#000"
          d="M221.288 174.934c-4.73 10.728-7.067 34.056-5.231 44.793 3.348-13.764 7.378-30.13 10.491-42.721-1.05-3.651-2.791-7.672-5.26-2.072Z"
          opacity=".3"/>
    <path fill="#263238"
          d="m189.786 323.031-13.263-3.652.265-5.401 14.928 5.155-1.93 3.898ZM174.603 329.085c.617.18 1.251.294 1.892.341a.182.182 0 0 0 .091-.021.168.168 0 0 0 .089-.156.165.165 0 0 0-.029-.088c-.17-.218-1.636-2.119-2.554-2.063a.621.621 0 0 0-.511.322.942.942 0 0 0-.076.946c.269.363.658.618 1.098.719Zm1.504 0c-1.268-.151-2.138-.473-2.346-.88a.579.579 0 0 1 .066-.596.305.305 0 0 1 .246-.161c.492-.056 1.419.871 2.034 1.609v.028Z"/>
    <path fill="#263238"
          d="M176.429 329.416h.076a.17.17 0 0 0 .123-.104c0-.075.804-1.949.34-2.838a.803.803 0 0 0-.586-.425.62.62 0 0 0-.719.283c-.388.681.151 2.394.69 3.009l.076.075Zm0-2.999c.063.019.122.05.173.092.05.043.091.095.12.154a3.641 3.641 0 0 1-.255 2.261 3.33 3.33 0 0 1-.483-2.393c0-.085.133-.18.369-.132l.076.018ZM219.226 104.183c-.36.851-.662 1.495-.993 2.214-.332.719-.691 1.381-1.041 2.062a92.702 92.702 0 0 1-2.204 4.039 77.952 77.952 0 0 1-5.109 7.739 58.648 58.648 0 0 1-6.291 7.18 36.418 36.418 0 0 1-8.211 6.073l-.236.123c-.383.198-.79.344-1.211.435a13.442 13.442 0 0 1-6.499-.255 18.946 18.946 0 0 1-4.957-2.308 32.165 32.165 0 0 1-6.849-6.206 56.91 56.91 0 0 1-4.986-6.915 62.25 62.25 0 0 1-3.907-7.427 3.064 3.064 0 0 1 5.175-3.169l.095.114c1.56 1.892 3.254 3.907 4.957 5.742a64.714 64.714 0 0 0 5.278 5.184 25.959 25.959 0 0 0 5.43 3.784 8.007 8.007 0 0 0 2.337.776 2.59 2.59 0 0 0 1.362-.114l-1.447.559a28.353 28.353 0 0 0 5.307-4.636 58.557 58.557 0 0 0 4.73-6.073 94.28 94.28 0 0 0 4.247-6.802 72.177 72.177 0 0 0 1.949-3.547l.946-1.788c.293-.577.615-1.24.842-1.703l.057-.133a6.145 6.145 0 0 1 8.083-2.973 6.15 6.15 0 0 1 3.127 8.025h.019Z"/>
    <path fill="#000"
          d="M203.759 117.03c2.97-7.89 9.28-8.022 12.014-5.932-.199.369-.407.738-.615 1.107a80.18 80.18 0 0 1-4.872 7.483 61.87 61.87 0 0 1-5.95 6.981 52.364 52.364 0 0 1-2.11 1.978c-.25-3.936.27-7.882 1.533-11.617Z"
          opacity=".3"/>
    <path fill="#FF8B7B"
          d="m166.496 111.429-6.149.227 1.532-6.574a31.73 31.73 0 0 1 6.272.946 2.492 2.492 0 0 1 1.626 1.554 2.481 2.481 0 0 1-.292 2.23 3.697 3.697 0 0 1-2.989 1.617Z"/>
    <path fill="#397DF6"
          d="M169.939 105.876a5.95 5.95 0 0 0-2.033-1.05c-.511 2.687-3.784 7.218-3.784 7.218h2.563a2.249 2.249 0 0 0 1.731-.804l1.798-2.157a2.23 2.23 0 0 0 .541-1.661 2.24 2.24 0 0 0-.816-1.546Z"/>
    <path fill="#FF8B7B"
          d="m155.636 108.629 1.721-4.635 4.503 1.097-1.532 6.566-4.692-3.028ZM232.953 334.809h-7.01l-.246-16.243h7.01l.246 16.243Z"/>
    <path fill="#263238"
          d="M225.574 333.995h7.88a.49.49 0 0 1 .193.031.48.48 0 0 1 .167.102.5.5 0 0 1 .16.349l.379 6.234a1.251 1.251 0 0 1-1.23 1.249c-2.744-.047-4.049-.208-7.568-.208-2.129 0-9.252.218-12.194.218s-2.838-2.914-1.618-3.179c5.601-1.173 10.595-2.838 12.573-4.361.355-.288.8-.442 1.258-.435Z"/>
    <path fill="#000" d="M232.716 318.575h-7.019l.132 8.372h7.01l-.123-8.372Z" opacity=".2"/>
    <path fill="#397DF6"
          d="M220.172 156.771s-2.677 60.932-1.542 81.015c1.249 21.985 3.86 87.137 3.86 87.137h12.846s3.236-63.383 4.011-85.14c.842-23.651 4.655-83.012 4.655-83.012h-23.83Z"/>
    <path fill="#263238"
          d="M235.857 324.923h-13.878l-1.06-5.165 15.316.766-.378 4.399ZM223.086 335.215a9.15 9.15 0 0 0 1.892-.246.177.177 0 0 0 .078-.051.186.186 0 0 0 .045-.081.18.18 0 0 0-.013-.089.18.18 0 0 0-.053-.072c-.228-.161-2.214-1.514-3.075-1.173a.617.617 0 0 0-.378.454.94.94 0 0 0 .208.889c.372.278.833.409 1.296.369Zm1.419-.482c-1.258.246-2.176.208-2.507-.114a.606.606 0 0 1-.114-.586.283.283 0 0 1 .18-.228c.464-.179 1.627.407 2.441.928Z"/>
    <path fill="#263238"
          d="M224.921 334.969a.12.12 0 0 0 .075 0 .176.176 0 0 0 .059-.056.16.16 0 0 0 .026-.076c0-.085.161-2.1-.548-2.782a.832.832 0 0 0-.691-.227.63.63 0 0 0-.586.492c-.171.767.879 2.233 1.58 2.649a.137.137 0 0 0 .085 0Zm-.946-2.838a.473.473 0 0 1 .35.142c.39.675.553 1.458.463 2.233-.605-.521-1.305-1.637-1.201-2.138 0-.095.075-.209.312-.237h.076ZM247.511 100.219a4.462 4.462 0 0 0-3.784-5.203h-.075c-2.261-.33-5.099-.672-7.881-.804a139.874 139.874 0 0 0-15.94 0c-2.45.227-4.843.634-6.754 1.003h-.076a6.697 6.697 0 0 0-5.099 4.673c-2.289 7.71-5.023 23.451-1.447 56.874h37.509c.265-3.349-.483-14.247.066-28.125a222.16 222.16 0 0 1 3.481-28.418Z"/>
    <path fill="#000"
          d="M247.152 102.282c-.776 4.484-1.731 10.585-2.394 17.028 0 0-3.424-6.717-4.048-12.459-.625-5.742 4.304-6.178 6.442-4.569Z"
          opacity=".3"/>
    <g fill="#fff" opacity=".2">
        <path d="M221.998 103.171a.364.364 0 0 1-.333-.276.362.362 0 0 1 .172-.396l11.693-6.064a.36.36 0 0 1 .473.151.358.358 0 0 1-.152.483l-11.692 6.045a.463.463 0 0 1-.161.057Z"/>
        <path d="M227.352 103.719a.307.307 0 0 1-.246-.104l-6.414-6.366a.37.37 0 0 1 0-.502.363.363 0 0 1 .502 0l6.404 6.376a.357.357 0 0 1 .102.251.357.357 0 0 1-.102.251.335.335 0 0 1-.246.094Z"/>
        <path d="M235.8 94.203a139.716 139.716 0 0 0-15.931 0h-.265a3.797 3.797 0 0 0 .407 2.904c.89 1.419 2.753 2.213 5.553 2.365h1.05c7.568 0 10.491-4.598 10.614-4.796l.265-.426-1.693-.047Z"/>
    </g>
    <path fill="#FF8B7B"
          d="M220.626 94.146c4.635-1.097 5.449-3.964 5.137-7.114a18.968 18.968 0 0 0-.369-2.346l5.808-4.825 4.267-3.538c-1.183 5.137-2.517 14.493.946 17.918 0 0-2.838 4.73-10.813 4.313-6.688-.369-4.976-4.408-4.976-4.408Z"/>
    <path fill="#000"
          d="M225.394 84.686c.172.774.295 1.557.369 2.346 2.166-.435 5.061-2.743 5.364-4.957.106-.733.132-1.475.075-2.213l-5.808 4.824Z"
          opacity=".2"/>
    <path fill="#263238"
          d="M222.31 60.07c-3.15 1.893-2.649 6.623-3.5 10.01 2.005.198 5.165-3.368 5.165-3.368l1.892-5.42-3.557-1.221Z"/>
    <path fill="#FF8B7B"
          d="M239.064 69.588c-2.015 6.678-2.838 10.68-7.114 13.47a9.073 9.073 0 0 1-14.115-7.671c0-6.367 3.274-16.224 10.577-17.587a9.173 9.173 0 0 1 10.889 7.047 9.183 9.183 0 0 1-.237 4.74Z"/>
    <path fill="#263238"
          d="M232.773 75.254c4.73-5.486-1.183-8.192 3.651-12.004-5.439.255-14.398-.133-15.997-3.86-1.598-3.727 3.321-8.779 7.417-9.252 4.73-.549 3.708 5.307 3.708 5.307s18.097-1.126 12.355 6.622c4.352-.265 3.15 6.774-4.418 12.714-1.901.634-6.716.473-6.716.473Z"/>
    <path fill="#263238" d="M242.819 62.162s3.728-1.107 3.605-4.059c1.343.927 1.485 3.746-3.605 4.059Z"/>
    <path fill="#FF8B7B"
          d="M240.17 76.56a7.485 7.485 0 0 1-4.304 2.62c-2.148.388-2.649-1.598-1.58-3.538.946-1.74 3.245-4.04 5.175-3.557 1.929.483 2.081 2.782.709 4.475Z"/>
    <path fill="#263238"
          d="M228.289 69.418c-.133.548-.53.946-.899.86-.369-.085-.549-.577-.416-1.125.132-.549.529-.946.889-.87.359.075.558.576.426 1.135ZM222.017 68.16c-.133.548-.53.945-.889.87-.36-.076-.559-.577-.426-1.126.132-.549.53-.946.889-.87.36.075.558.577.426 1.125Z"/>
    <path fill="#FF5652" d="M223.947 68.831a21.04 21.04 0 0 1-3.784 4.181 3.23 3.23 0 0 0 2.535 1.031l1.249-5.212Z"/>
    <path fill="#263238"
          d="M224.627 75.973a4.856 4.856 0 0 0 3.642-1.173.143.143 0 0 0 .038-.051.149.149 0 0 0-.038-.176.169.169 0 0 0-.236 0 4.626 4.626 0 0 1-3.992.993.162.162 0 0 0-.167.073.16.16 0 0 0-.022.06.17.17 0 0 0 .132.199l.643.075ZM230.71 67.885a.256.256 0 0 0 .161 0 .318.318 0 0 0 .193-.31.318.318 0 0 0-.032-.125 3.176 3.176 0 0 0-2.337-1.892.34.34 0 0 0-.378.284.334.334 0 0 0 .169.33.332.332 0 0 0 .124.038 2.541 2.541 0 0 1 1.816 1.495.342.342 0 0 0 .284.18ZM220.465 64.394a.305.305 0 0 0 .303-.056 2.736 2.736 0 0 1 2.384-.558.334.334 0 0 0 .322-.57.34.34 0 0 0-.114-.064 3.442 3.442 0 0 0-2.999.671.336.336 0 0 0-.124.22.333.333 0 0 0 .068.244.282.282 0 0 0 .16.113ZM247.852 97.523l.785 1.07.709 1.002c.473.672.899 1.343 1.344 2.015a95.335 95.335 0 0 1 2.459 4.106 90.514 90.514 0 0 1 4.276 8.514c.662 1.438 1.23 2.932 1.836 4.398.605 1.467 1.116 2.99 1.579 4.522a84.068 84.068 0 0 1 2.46 9.3l.076.359a4.942 4.942 0 0 1-.672 3.727 27.06 27.06 0 0 1-4.304 5.099 22.255 22.255 0 0 1-5.676 3.784 20.404 20.404 0 0 1-6.49 1.798c-1.1.113-2.208.132-3.311.056-.549 0-1.097-.104-1.646-.189l-.832-.161-.946-.236a.435.435 0 0 1-.322-.52l1.305-5.487c0-.048.246-.057.398-.095l.52-.104c.36-.076.71-.161 1.069-.255a15.04 15.04 0 0 0 2.053-.719 14.697 14.697 0 0 0 3.585-2.11 18.124 18.124 0 0 0 4.976-6.48l-.596 4.087c-.813-2.677-1.674-5.326-2.715-7.947a110.01 110.01 0 0 0-3.415-7.728 113.171 113.171 0 0 0-3.992-7.483c-.7-1.221-1.438-2.422-2.176-3.614l-1.126-1.76-.558-.851-.52-.757-.189-.284a6.142 6.142 0 1 1 10.056-7.057Z"/>
    <path fill="#FF8B7B"
          d="m235.346 146.138-2.034 3.33 8.826-.35s2.318-5.941-.842-6.877l-1.23.331a8.098 8.098 0 0 0-4.72 3.566Z"/>
    <path fill="#397DF6"
          d="M238.978 141.474a5.91 5.91 0 0 0-1.608 1.618c2.403 1.305 5.752 5.751 5.752 5.751l.776-2.44a2.266 2.266 0 0 0-.256-1.892l-1.466-2.365a2.241 2.241 0 0 0-1.455-1.023 2.253 2.253 0 0 0-1.743.351Z"/>
    <path fill="#FF8B7B" d="m234.088 154.595 7.274-.643.776-4.834-8.826.35.776 5.127Z"/>
    <path fill="#397DF6"
          d="m144.794 39.108-.482-.814a33.474 33.474 0 0 1 4.323-2.157l.36.88a31.641 31.641 0 0 0-4.201 2.09ZM130.983 55.814l-.946-.322a32.935 32.935 0 0 1 11.645-15.476l.559.766a31.88 31.88 0 0 0-11.258 15.032Z"/>
    <path fill="#234E99"
          d="M161.009 95.707c16.081 0 29.118-13.037 29.118-29.118 0-16.081-13.037-29.118-29.118-29.118-16.081 0-29.118 13.037-29.118 29.118 0 16.081 13.037 29.118 29.118 29.118Z"/>
    <path fill="#fff"
          d="M185.331 66.589a24.322 24.322 0 1 1-6.357-16.404.054.054 0 0 1 .047 0 24.279 24.279 0 0 1 6.31 16.404Z"
          opacity=".6"/>
    <path fill="#fff"
          d="M185.331 66.589a24.318 24.318 0 0 1-28.351 23.985 24.324 24.324 0 0 1-12.469-6.115 24.324 24.324 0 0 1 .769-33.69 24.322 24.322 0 0 1 33.694-.584.053.053 0 0 1 .023-.005c.008 0 .017.002.024.005a24.279 24.279 0 0 1 6.31 16.404Z"/>
    <path fill="#263238"
          d="M161.009 68.008a1.412 1.412 0 0 1-1.003-.416l-11.862-11.863a1.403 1.403 0 0 1-.329-.46 1.405 1.405 0 0 1-.02-1.11 1.427 1.427 0 0 1 .784-.784 1.422 1.422 0 0 1 1.57.348l10.86 10.86 6.272-6.271a1.42 1.42 0 0 1 2.006 2.005l-7.275 7.275a1.43 1.43 0 0 1-1.003.416Z"/>
</svg>